$MeshFormat
2.2 0 8
$EndMeshFormat
$PhysicalNames
3
2 1 "fixed_end"
2 2 "load_surface"
3 3 "beam"
$EndPhysicalNames
$Nodes
315
1 0 0 0
2 0.05 0 0
3 0.1 0 0
4 0.15 0 0
5 0.2 0 0
6 0.25 0 0
7 0.3 0 0
8 0.35 0 0
9 0.4 0 0
10 0.45 0 0
11 0.5 0 0
12 0.55 0 0
13 0.6000000000000001 0 0
14 0.65 0 0
15 0.7000000000000001 0 0
16 0.75 0 0
17 0.8 0 0
18 0.8500000000000001 0 0
19 0.9 0 0
20 0.9500000000000001 0 0
21 1 0 0
22 0 0.05 0
23 0.05 0.05 0
24 0.1 0.05 0
25 0.15 0.05 0
26 0.2 0.05 0
27 0.25 0.05 0
28 0.3 0.05 0
29 0.35 0.05 0
30 0.4 0.05 0
31 0.45 0.05 0
32 0.5 0.05 0
33 0.55 0.05 0
34 0.6000000000000001 0.05 0
35 0.65 0.05 0
36 0.7000000000000001 0.05 0
37 0.75 0.05 0
38 0.8 0.05 0
39 0.8500000000000001 0.05 0
40 0.9 0.05 0
41 0.9500000000000001 0.05 0
42 1 0.05 0
43 0 0.1 0
44 0.05 0.1 0
45 0.1 0.1 0
46 0.15 0.1 0
47 0.2 0.1 0
48 0.25 0.1 0
49 0.3 0.1 0
50 0.35 0.1 0
51 0.4 0.1 0
52 0.45 0.1 0
53 0.5 0.1 0
54 0.55 0.1 0
55 0.6000000000000001 0.1 0
56 0.65 0.1 0
57 0.7000000000000001 0.1 0
58 0.75 0.1 0
59 0.8 0.1 0
60 0.8500000000000001 0.1 0
61 0.9 0.1 0
62 0.9500000000000001 0.1 0
63 1 0.1 0
64 0 0 0.05
65 0.05 0 0.05
66 0.1 0 0.05
67 0.15 0 0.05
68 0.2 0 0.05
69 0.25 0 0.05
70 0.3 0 0.05
71 0.35 0 0.05
72 0.4 0 0.05
73 0.45 0 0.05
74 0.5 0 0.05
75 0.55 0 0.05
76 0.6000000000000001 0 0.05
77 0.65 0 0.05
78 0.7000000000000001 0 0.05
79 0.75 0 0.05
80 0.8 0 0.05
81 0.8500000000000001 0 0.05
82 0.9 0 0.05
83 0.9500000000000001 0 0.05
84 1 0 0.05
85 0 0.05 0.05
86 0.05 0.05 0.05
87 0.1 0.05 0.05
88 0.15 0.05 0.05
89 0.2 0.05 0.05
90 0.25 0.05 0.05
91 0.3 0.05 0.05
92 0.35 0.05 0.05
93 0.4 0.05 0.05
94 0.45 0.05 0.05
95 0.5 0.05 0.05
96 0.55 0.05 0.05
97 0.6000000000000001 0.05 0.05
98 0.65 0.05 0.05
99 0.7000000000000001 0.05 0.05
100 0.75 0.05 0.05
101 0.8 0.05 0.05
102 0.8500000000000001 0.05 0.05
103 0.9 0.05 0.05
104 0.9500000000000001 0.05 0.05
105 1 0.05 0.05
106 0 0.1 0.05
107 0.05 0.1 0.05
108 0.1 0.1 0.05
109 0.15 0.1 0.05
110 0.2 0.1 0.05
111 0.25 0.1 0.05
112 0.3 0.1 0.05
113 0.35 0.1 0.05
114 0.4 0.1 0.05
115 0.45 0.1 0.05
116 0.5 0.1 0.05
117 0.55 0.1 0.05
118 0.6000000000000001 0.1 0.05
119 0.65 0.1 0.05
120 0.7000000000000001 0.1 0.05
121 0.75 0.1 0.05
122 0.8 0.1 0.05
123 0.8500000000000001 0.1 0.05
124 0.9 0.1 0.05
125 0.9500000000000001 0.1 0.05
126 1 0.1 0.05
127 0 0 0.1
128 0.05 0 0.1
129 0.1 0 0.1
130 0.15 0 0.1
131 0.2 0 0.1
132 0.25 0 0.1
133 0.3 0 0.1
134 0.35 0 0.1
135 0.4 0 0.1
136 0.45 0 0.1
137 0.5 0 0.1
138 0.55 0 0.1
139 0.6000000000000001 0 0.1
140 0.65 0 0.1
141 0.7000000000000001 0 0.1
142 0.75 0 0.1
143 0.8 0 0.1
144 0.8500000000000001 0 0.1
145 0.9 0 0.1
146 0.9500000000000001 0 0.1
147 1 0 0.1
148 0 0.05 0.1
149 0.05 0.05 0.1
150 0.1 0.05 0.1
151 0.15 0.05 0.1
152 0.2 0.05 0.1
153 0.25 0.05 0.1
154 0.3 0.05 0.1
155 0.35 0.05 0.1
156 0.4 0.05 0.1
157 0.45 0.05 0.1
158 0.5 0.05 0.1
159 0.55 0.05 0.1
160 0.6000000000000001 0.05 0.1
161 0.65 0.05 0.1
162 0.7000000000000001 0.05 0.1
163 0.75 0.05 0.1
164 0.8 0.05 0.1
165 0.8500000000000001 0.05 0.1
166 0.9 0.05 0.1
167 0.9500000000000001 0.05 0.1
168 1 0.05 0.1
169 0 0.1 0.1
170 0.05 0.1 0.1
171 0.1 0.1 0.1
172 0.15 0.1 0.1
173 0.2 0.1 0.1
174 0.25 0.1 0.1
175 0.3 0.1 0.1
176 0.35 0.1 0.1
177 0.4 0.1 0.1
178 0.45 0.1 0.1
179 0.5 0.1 0.1
180 0.55 0.1 0.1
181 0.6000000000000001 0.1 0.1
182 0.65 0.1 0.1
183 0.7000000000000001 0.1 0.1
184 0.75 0.1 0.1
185 0.8 0.1 0.1
186 0.8500000000000001 0.1 0.1
187 0.9 0.1 0.1
188 0.9500000000000001 0.1 0.1
189 1 0.1 0.1
190 0 0 0.15
191 0.05 0 0.15
192 0.1 0 0.15
193 0.15 0 0.15
194 0.2 0 0.15
195 0.25 0 0.15
196 0.3 0 0.15
197 0.35 0 0.15
198 0.4 0 0.15
199 0.45 0 0.15
200 0.5 0 0.15
201 0.55 0 0.15
202 0.6000000000000001 0 0.15
203 0.65 0 0.15
204 0.7000000000000001 0 0.15
205 0.75 0 0.15
206 0.8 0 0.15
207 0.8500000000000001 0 0.15
208 0.9 0 0.15
209 0.9500000000000001 0 0.15
210 1 0 0.15
211 0 0.05 0.15
212 0.05 0.05 0.15
213 0.1 0.05 0.15
214 0.15 0.05 0.15
215 0.2 0.05 0.15
216 0.25 0.05 0.15
217 0.3 0.05 0.15
218 0.35 0.05 0.15
219 0.4 0.05 0.15
220 0.45 0.05 0.15
221 0.5 0.05 0.15
222 0.55 0.05 0.15
223 0.6000000000000001 0.05 0.15
224 0.65 0.05 0.15
225 0.7000000000000001 0.05 0.15
226 0.75 0.05 0.15
227 0.8 0.05 0.15
228 0.8500000000000001 0.05 0.15
229 0.9 0.05 0.15
230 0.9500000000000001 0.05 0.15
231 1 0.05 0.15
232 0 0.1 0.15
233 0.05 0.1 0.15
234 0.1 0.1 0.15
235 0.15 0.1 0.15
236 0.2 0.1 0.15
237 0.25 0.1 0.15
238 0.3 0.1 0.15
239 0.35 0.1 0.15
240 0.4 0.1 0.15
241 0.45 0.1 0.15
242 0.5 0.1 0.15
243 0.55 0.1 0.15
244 0.6000000000000001 0.1 0.15
245 0.65 0.1 0.15
246 0.7000000000000001 0.1 0.15
247 0.75 0.1 0.15
248 0.8 0.1 0.15
249 0.8500000000000001 0.1 0.15
250 0.9 0.1 0.15
251 0.9500000000000001 0.1 0.15
252 1 0.1 0.15
253 0 0 0.2
254 0.05 0 0.2
255 0.1 0 0.2
256 0.15 0 0.2
257 0.2 0 0.2
258 0.25 0 0.2
259 0.3 0 0.2
260 0.35 0 0.2
261 0.4 0 0.2
262 0.45 0 0.2
263 0.5 0 0.2
264 0.55 0 0.2
265 0.6000000000000001 0 0.2
266 0.65 0 0.2
267 0.7000000000000001 0 0.2
268 0.75 0 0.2
269 0.8 0 0.2
270 0.8500000000000001 0 0.2
271 0.9 0 0.2
272 0.9500000000000001 0 0.2
273 1 0 0.2
274 0 0.05 0.2
275 0.05 0.05 0.2
276 0.1 0.05 0.2
277 0.15 0.05 0.2
278 0.2 0.05 0.2
279 0.25 0.05 0.2
280 0.3 0.05 0.2
281 0.35 0.05 0.2
282 0.4 0.05 0.2
283 0.45 0.05 0.2
284 0.5 0.05 0.2
285 0.55 0.05 0.2
286 0.6000000000000001 0.05 0.2
287 0.65 0.05 0.2
288 0.7000000000000001 0.05 0.2
289 0.75 0.05 0.2
290 0.8 0.05 0.2
291 0.8500000000000001 0.05 0.2
292 0.9 0.05 0.2
293 0.9500000000000001 0.05 0.2
294 1 0.05 0.2
295 0 0.1 0.2
296 0.05 0.1 0.2
297 0.1 0.1 0.2
298 0.15 0.1 0.2
299 0.2 0.1 0.2
300 0.25 0.1 0.2
301 0.3 0.1 0.2
302 0.35 0.1 0.2
303 0.4 0.1 0.2
304 0.45 0.1 0.2
305 0.5 0.1 0.2
306 0.55 0.1 0.2
307 0.6000000000000001 0.1 0.2
308 0.65 0.1 0.2
309 0.7000000000000001 0.1 0.2
310 0.75 0.1 0.2
311 0.8 0.1 0.2
312 0.8500000000000001 0.1 0.2
313 0.9 0.1 0.2
314 0.9500000000000001 0.1 0.2
315 1 0.1 0.2
$EndNodes
$Elements
208
1 5 2 3 3 1 2 23 22 64 65 86 85
2 5 2 3 3 2 3 24 23 65 66 87 86
3 5 2 3 3 3 4 25 24 66 67 88 87
4 5 2 3 3 4 5 26 25 67 68 89 88
5 5 2 3 3 5 6 27 26 68 69 90 89
6 5 2 3 3 6 7 28 27 69 70 91 90
7 5 2 3 3 7 8 29 28 70 71 92 91
8 5 2 3 3 8 9 30 29 71 72 93 92
9 5 2 3 3 9 10 31 30 72 73 94 93
10 5 2 3 3 10 11 32 31 73 74 95 94
11 5 2 3 3 11 12 33 32 74 75 96 95
12 5 2 3 3 12 13 34 33 75 76 97 96
13 5 2 3 3 13 14 35 34 76 77 98 97
14 5 2 3 3 14 15 36 35 77 78 99 98
15 5 2 3 3 15 16 37 36 78 79 100 99
16 5 2 3 3 16 17 38 37 79 80 101 100
17 5 2 3 3 17 18 39 38 80 81 102 101
18 5 2 3 3 18 19 40 39 81 82 103 102
19 5 2 3 3 19 20 41 40 82 83 104 103
20 5 2 3 3 20 21 42 41 83 84 105 104
21 5 2 3 3 22 23 44 43 85 86 107 106
22 5 2 3 3 23 24 45 44 86 87 108 107
23 5 2 3 3 24 25 46 45 87 88 109 108
24 5 2 3 3 25 26 47 46 88 89 110 109
25 5 2 3 3 26 27 48 47 89 90 111 110
26 5 2 3 3 27 28 49 48 90 91 112 111
27 5 2 3 3 28 29 50 49 91 92 113 112
28 5 2 3 3 29 30 51 50 92 93 114 113
29 5 2 3 3 30 31 52 51 93 94 115 114
30 5 2 3 3 31 32 53 52 94 95 116 115
31 5 2 3 3 32 33 54 53 95 96 117 116
32 5 2 3 3 33 34 55 54 96 97 118 117
33 5 2 3 3 34 35 56 55 97 98 119 118
34 5 2 3 3 35 36 57 56 98 99 120 119
35 5 2 3 3 36 37 58 57 99 100 121 120
36 5 2 3 3 37 38 59 58 100 101 122 121
37 5 2 3 3 38 39 60 59 101 102 123 122
38 5 2 3 3 39 40 61 60 102 103 124 123
39 5 2 3 3 40 41 62 61 103 104 125 124
40 5 2 3 3 41 42 63 62 104 105 126 125
41 5 2 3 3 64 65 86 85 127 128 149 148
42 5 2 3 3 65 66 87 86 128 129 150 149
43 5 2 3 3 66 67 88 87 129 130 151 150
44 5 2 3 3 67 68 89 88 130 131 152 151
45 5 2 3 3 68 69 90 89 131 132 153 152
46 5 2 3 3 69 70 91 90 132 133 154 153
47 5 2 3 3 70 71 92 91 133 134 155 154
48 5 2 3 3 71 72 93 92 134 135 156 155
49 5 2 3 3 72 73 94 93 135 136 157 156
50 5 2 3 3 73 74 95 94 136 137 158 157
51 5 2 3 3 74 75 96 95 137 138 159 158
52 5 2 3 3 75 76 97 96 138 139 160 159
53 5 2 3 3 76 77 98 97 139 140 161 160
54 5 2 3 3 77 78 99 98 140 141 162 161
55 5 2 3 3 78 79 100 99 141 142 163 162
56 5 2 3 3 79 80 101 100 142 143 164 163
57 5 2 3 3 80 81 102 101 143 144 165 164
58 5 2 3 3 81 82 103 102 144 145 166 165
59 5 2 3 3 82 83 104 103 145 146 167 166
60 5 2 3 3 83 84 105 104 146 147 168 167
61 5 2 3 3 85 86 107 106 148 149 170 169
62 5 2 3 3 86 87 108 107 149 150 171 170
63 5 2 3 3 87 88 109 108 150 151 172 171
64 5 2 3 3 88 89 110 109 151 152 173 172
65 5 2 3 3 89 90 111 110 152 153 174 173
66 5 2 3 3 90 91 112 111 153 154 175 174
67 5 2 3 3 91 92 113 112 154 155 176 175
68 5 2 3 3 92 93 114 113 155 156 177 176
69 5 2 3 3 93 94 115 114 156 157 178 177
70 5 2 3 3 94 95 116 115 157 158 179 178
71 5 2 3 3 95 96 117 116 158 159 180 179
72 5 2 3 3 96 97 118 117 159 160 181 180
73 5 2 3 3 97 98 119 118 160 161 182 181
74 5 2 3 3 98 99 120 119 161 162 183 182
75 5 2 3 3 99 100 121 120 162 163 184 183
76 5 2 3 3 100 101 122 121 163 164 185 184
77 5 2 3 3 101 102 123 122 164 165 186 185
78 5 2 3 3 102 103 124 123 165 166 187 186
79 5 2 3 3 103 104 125 124 166 167 188 187
80 5 2 3 3 104 105 126 125 167 168 189 188
81 5 2 3 3 127 128 149 148 190 191 212 211
82 5 2 3 3 128 129 150 149 191 192 213 212
83 5 2 3 3 129 130 151 150 192 193 214 213
84 5 2 3 3 130 131 152 151 193 194 215 214
85 5 2 3 3 131 132 153 152 194 195 216 215
86 5 2 3 3 132 133 154 153 195 196 217 216
87 5 2 3 3 133 134 155 154 196 197 218 217
88 5 2 3 3 134 135 156 155 197 198 219 218
89 5 2 3 3 135 136 157 156 198 199 220 219
90 5 2 3 3 136 137 158 157 199 200 221 220
91 5 2 3 3 137 138 159 158 200 201 222 221
92 5 2 3 3 138 139 160 159 201 202 223 222
93 5 2 3 3 139 140 161 160 202 203 224 223
94 5 2 3 3 140 141 162 161 203 204 225 224
95 5 2 3 3 141 142 163 162 204 205 226 225
96 5 2 3 3 142 143 164 163 205 206 227 226
97 5 2 3 3 143 144 165 164 206 207 228 227
98 5 2 3 3 144 145 166 165 207 208 229 228
99 5 2 3 3 145 146 167 166 208 209 230 229
100 5 2 3 3 146 147 168 167 209 210 231 230
101 5 2 3 3 148 149 170 169 211 212 233 232
102 5 2 3 3 149 150 171 170 212 213 234 233
103 5 2 3 3 150 151 172 171 213 214 235 234
104 5 2 3 3 151 152 173 172 214 215 236 235
105 5 2 3 3 152 153 174 173 215 216 237 236
106 5 2 3 3 153 154 175 174 216 217 238 237
107 5 2 3 3 154 155 176 175 217 218 239 238
108 5 2 3 3 155 156 177 176 218 219 240 239
109 5 2 3 3 156 157 178 177 219 220 241 240
110 5 2 3 3 157 158 179 178 220 221 242 241
111 5 2 3 3 158 159 180 179 221 222 243 242
112 5 2 3 3 159 160 181 180 222 223 244 243
113 5 2 3 3 160 161 182 181 223 224 245 244
114 5 2 3 3 161 162 183 182 224 225 246 245
115 5 2 3 3 162 163 184 183 225 226 247 246
116 5 2 3 3 163 164 185 184 226 227 248 247
117 5 2 3 3 164 165 186 185 227 228 249 248
118 5 2 3 3 165 166 187 186 228 229 250 249
119 5 2 3 3 166 167 188 187 229 230 251 250
120 5 2 3 3 167 168 189 188 230 231 252 251
121 5 2 3 3 190 191 212 211 253 254 275 274
122 5 2 3 3 191 192 213 212 254 255 276 275
123 5 2 3 3 192 193 214 213 255 256 277 276
124 5 2 3 3 193 194 215 214 256 257 278 277
125 5 2 3 3 194 195 216 215 257 258 279 278
126 5 2 3 3 195 196 217 216 258 259 280 279
127 5 2 3 3 196 197 218 217 259 260 281 280
128 5 2 3 3 197 198 219 218 260 261 282 281
129 5 2 3 3 198 199 220 219 261 262 283 282
130 5 2 3 3 199 200 221 220 262 263 284 283
131 5 2 3 3 200 201 222 221 263 264 285 284
132 5 2 3 3 201 202 223 222 264 265 286 285
133 5 2 3 3 202 203 224 223 265 266 287 286
134 5 2 3 3 203 204 225 224 266 267 288 287
135 5 2 3 3 204 205 226 225 267 268 289 288
136 5 2 3 3 205 206 227 226 268 269 290 289
137 5 2 3 3 206 207 228 227 269 270 291 290
138 5 2 3 3 207 208 229 228 270 271 292 291
139 5 2 3 3 208 209 230 229 271 272 293 292
140 5 2 3 3 209 210 231 230 272 273 294 293
141 5 2 3 3 211 212 233 232 274 275 296 295
142 5 2 3 3 212 213 234 233 275 276 297 296
143 5 2 3 3 213 214 235 234 276 277 298 297
144 5 2 3 3 214 215 236 235 277 278 299 298
145 5 2 3 3 215 216 237 236 278 279 300 299
146 5 2 3 3 216 217 238 237 279 280 301 300
147 5 2 3 3 217 218 239 238 280 281 302 301
148 5 2 3 3 218 219 240 239 281 282 303 302
149 5 2 3 3 219 220 241 240 282 283 304 303
150 5 2 3 3 220 221 242 241 283 284 305 304
151 5 2 3 3 221 222 243 242 284 285 306 305
152 5 2 3 3 222 223 244 243 285 286 307 306
153 5 2 3 3 223 224 245 244 286 287 308 307
154 5 2 3 3 224 225 246 245 287 288 309 308
155 5 2 3 3 225 226 247 246 288 289 310 309
156 5 2 3 3 226 227 248 247 289 290 311 310
157 5 2 3 3 227 228 249 248 290 291 312 311
158 5 2 3 3 228 229 250 249 291 292 313 312
159 5 2 3 3 229 230 251 250 292 293 314 313
160 5 2 3 3 230 231 252 251 293 294 315 314
161 3 2 1 1 1 22 85 64
162 3 2 1 1 22 43 106 85
163 3 2 1 1 64 85 148 127
164 3 2 1 1 85 106 169 148
165 3 2 1 1 127 148 211 190
166 3 2 1 1 148 169 232 211
167 3 2 1 1 190 211 274 253
168 3 2 1 1 211 232 295 274
169 3 2 2 2 253 254 275 274
170 3 2 2 2 254 255 276 275
171 3 2 2 2 255 256 277 276
172 3 2 2 2 256 257 278 277
173 3 2 2 2 257 258 279 278
174 3 2 2 2 258 259 280 279
175 3 2 2 2 259 260 281 280
176 3 2 2 2 260 261 282 281
177 3 2 2 2 261 262 283 282
178 3 2 2 2 262 263 284 283
179 3 2 2 2 263 264 285 284
180 3 2 2 2 264 265 286 285
181 3 2 2 2 265 266 287 286
182 3 2 2 2 266 267 288 287
183 3 2 2 2 267 268 289 288
184 3 2 2 2 268 269 290 289
185 3 2 2 2 269 270 291 290
186 3 2 2 2 270 271 292 291
187 3 2 2 2 271 272 293 292
188 3 2 2 2 272 273 294 293
189 3 2 2 2 274 275 296 295
190 3 2 2 2 275 276 297 296
191 3 2 2 2 276 277 298 297
192 3 2 2 2 277 278 299 298
193 3 2 2 2 278 279 300 299
194 3 2 2 2 279 280 301 300
195 3 2 2 2 280 281 302 301
196 3 2 2 2 281 282 303 302
197 3 2 2 2 282 283 304 303
198 3 2 2 2 283 284 305 304
199 3 2 2 2 284 285 306 305
200 3 2 2 2 285 286 307 306
201 3 2 2 2 286 287 308 307
202 3 2 2 2 287 288 309 308
203 3 2 2 2 288 289 310 309
204 3 2 2 2 289 290 311 310
205 3 2 2 2 290 291 312 311
206 3 2 2 2 291 292 313 312
207 3 2 2 2 292 293 314 313
208 3 2 2 2 293 294 315 314
$EndElements
